<svg id="Capa_1" enable-background="new 0 0 512 512" height="512" viewBox="0 0 512 512" width="512" xmlns="http://www.w3.org/2000/svg"><g><path d="m507.871 235.495-43.98 84.568v66.231c0 1.126-.024 2.253-.048 3.368-1.649 65.484-56.244 117.256-121.752 117.256h-99.382c-6.962 0-13.853-.593-20.614-1.755-25.489-4.353-49.128-16.736-67.322-35.606l-140.149-145.319c-9.749-9.75-14.624-22.536-14.624-35.31s4.875-25.548 14.624-35.298c9.702-9.69 22.37-14.577 35.061-14.636 12.869-.059 25.75 4.816 35.559 14.636l46.803 46.803-53.208-204.493c-.996-3.795-1.459-7.615-1.459-11.374 0-19.95 13.391-38.168 33.602-43.435 24.03-6.274 48.558 8.125 54.821 32.143l42.58 164.439c1.779 6.915 11.956 5.622 11.956-1.519v-185.373c0-24.92 20.401-45.949 45.32-45.736 12.264.107 23.342 5.112 31.396 13.165 8.137 8.137 13.166 19.381 13.166 31.775v190.059c0 2.158 3.096 2.479 3.535.367l29.166-140.646c4.389-21.219 23.081-35.82 43.945-35.82 3.036 0 6.108.308 9.192.949 24.291 5.041 39.9 28.822 34.871 53.125l-31.657 152.602c-.842 4.045 4.732 6.025 6.63 2.361l37.077-71.272c9.311-17.922 31.396-24.884 49.317-15.573 17.922 9.323 24.884 31.408 15.574 49.318z" fill="#efc285"/><g fill="#eaae63"><path d="m500.7 192.177c-15.574-3.165-31.99 4.172-39.683 18.976l-29.944 57.561c-4.098 7.878-13.346 11.568-21.742 8.676l-7.376-2.541c1.434.344 3.082-.154 3.947-1.825l37.075-71.27c9.316-17.921 31.398-24.891 49.319-15.574 3.153 1.635 5.962 3.674 8.404 5.997z"/><path d="m396.053 64.939c6.448 1.34 12.291 3.994 17.293 7.645-.806-.047-1.612-.071-2.418-.071-20.861 0-39.552 14.603-43.95 35.819l-23.976 115.649c-2.74 13.219-16.517 20.979-29.243 16.472l29.158-140.643c4.397-21.216 23.089-35.819 43.949-35.819 3.035-.001 6.105.308 9.187.948z"/><path d="m265.662 5.083c5.476.047 10.727 1.067 15.575 2.916-17.092 6.578-29.312 23.527-29.312 42.823v166.816c0 13.642-11.083 24.691-24.725 24.654-6.448-.018-11.795-.033-12.433-.038 2.868-.249 5.571-2.382 5.571-6.057v-185.375c-.001-24.926 20.398-45.952 45.324-45.739z"/><path d="m222.095 505.163c-25.489-4.353-49.128-16.736-67.322-35.606l-140.149-145.319c-9.749-9.75-14.624-22.536-14.624-35.31s4.875-25.548 14.624-35.298c9.702-9.69 22.37-14.577 35.061-14.636v.012c-1.198.996-2.36 2.052-3.487 3.179-9.738 9.738-14.624 22.523-14.624 35.298 0 12.774 4.887 25.548 14.624 35.31l160.928 160.916c8.481 8.492 13.735 19.617 14.969 31.454z"/><path d="m162.508 300.439h-30.461l-53.207-204.494c-.995-3.805-1.458-7.621-1.458-11.378 0-19.948 13.394-38.165 33.602-43.44 9.126-2.382 18.324-1.778 26.574 1.209-18.016 6.46-29.715 23.587-29.715 42.231 0 3.757.462 7.574 1.458 11.378z"/><path d="m270.178 362.511c-3.228 0-6.238-2.039-7.323-5.269-11.411-33.975-43.159-56.803-79.001-56.803h-35.392c-4.267 0-7.726-3.459-7.726-7.726s3.459-7.726 7.726-7.726h35.392c42.487 0 80.122 27.06 93.649 67.336 1.359 4.045-.819 8.426-4.865 9.784-.814.273-1.644.404-2.46.404z"/></g></g></svg>