<?xml version="1.0"?>
<svg xmlns="http://www.w3.org/2000/svg" xmlns:xlink="http://www.w3.org/1999/xlink" xmlns:svgjs="http://svgjs.com/svgjs" version="1.1" width="512" height="512" x="0" y="0" viewBox="0 0 128 128" style="enable-background:new 0 0 512 512" xml:space="preserve" class=""><g><g xmlns="http://www.w3.org/2000/svg"><path d="m64 113.744a1.75 1.75 0 0 1 -1.75-1.75 5.76 5.76 0 0 0 -.808-3.11 9.876 9.876 0 0 1 0-9.407 6.38 6.38 0 0 0 0-6.215 9.872 9.872 0 0 1 0-9.405 5.751 5.751 0 0 0 .808-3.107 1.75 1.75 0 0 1 3.5 0 9.172 9.172 0 0 1 -1.192 4.7 6.376 6.376 0 0 0 0 6.213 9.872 9.872 0 0 1 0 9.405 6.387 6.387 0 0 0 0 6.219 9.17 9.17 0 0 1 1.192 4.7 1.75 1.75 0 0 1 -1.75 1.757z" fill="#292149" data-original="#292149" style="" class=""/><path d="m87.25 43.468c0 16.221-10.409 31.282-23.25 31.282s-23.25-15.061-23.25-31.282 10.409-27.461 23.25-27.461 23.25 11.239 23.25 27.461z" fill="#9ffb6b" data-original="#fb7b6b" style="" class=""/><g fill="#f2e89c"><path d="m61.194 24.174a1.748 1.748 0 0 0 -2.229-1.074 16.224 16.224 0 0 0 -7.955 6.245 1.75 1.75 0 1 0 2.881 1.987 12.76 12.76 0 0 1 6.23-4.929 1.749 1.749 0 0 0 1.073-2.229z" fill="#f2e89c" data-original="#f2e89c" style="" class=""/><path d="m49.513 36.759a1.74 1.74 0 0 0 -2.039 1.4c-.163.88-.286 1.788-.363 2.7a1.749 1.749 0 0 0 1.594 1.893c.051 0 .1.007.151.007a1.751 1.751 0 0 0 1.742-1.6c.068-.8.175-1.592.317-2.361a1.748 1.748 0 0 0 -1.402-2.039z" fill="#f2e89c" data-original="#f2e89c" style="" class=""/></g><path d="m71.75 80.75c-1.819-3.569-4.612-6-7.75-6s-5.931 2.431-7.75 6z" fill="#9ffb6b" data-original="#ef6054" style="" class=""/></g></g></svg>
