<svg width="800" height="600" xmlns="http://www.w3.org/2000/svg">
 <!-- Created with Method Draw - http://github.com/duopixel/Method-Draw/ -->

 <g>
  <title>background</title>
  <rect fill="none" id="canvas_background" height="602" width="802" y="-1" x="-1"/>
  <g display="none" overflow="visible" y="0" x="0" height="100%" width="100%" id="canvasGrid">
   <rect fill="url(#gridpattern)" stroke-width="0" y="0" x="0" height="100%" width="100%"/>
  </g>
 </g>
 <g>
  <title>Layer 1</title>
  <g stroke="null" id="svg_24">
   <g stroke="null" transform="matrix(4.118826198780618,0,0,4.221694455743609,-357.34023974445176,-315.02900408978417) " id="svg_16">
    <g stroke="null" id="svg_17">
     <path stroke="null" id="svg_18" fill="#292149" d="m189.21416,172.99615a1.75,1.75 0 0 1 -1.75,-1.75a5.76,5.76 0 0 0 -0.808,-3.11a9.876,9.876 0 0 1 0,-9.407a6.38,6.38 0 0 0 0,-6.215a9.872,9.872 0 0 1 0,-9.405a5.751,5.751 0 0 0 0.808,-3.107a1.75,1.75 0 0 1 3.5,0a9.172,9.172 0 0 1 -1.192,4.7a6.376,6.376 0 0 0 0,6.213a9.872,9.872 0 0 1 0,9.405a6.387,6.387 0 0 0 0,6.219a9.17,9.17 0 0 1 1.192,4.7a1.75,1.75 0 0 1 -1.75,1.757z"/>
     <path stroke="null" id="svg_19" fill="#9ffb6b" d="m212.46416,102.72015c0,16.221 -10.409,31.282 -23.25,31.282s-23.25,-15.061 -23.25,-31.282s10.409,-27.461 23.25,-27.461s23.25,11.239 23.25,27.461z"/>
     <g stroke="null" id="svg_20" fill="#f2e89c">
      <path stroke="null" id="svg_21" fill="#f2e89c" d="m186.40816,83.42615a1.748,1.748 0 0 0 -2.229,-1.074a16.224,16.224 0 0 0 -7.955,6.245a1.75,1.75 0 1 0 2.881,1.987a12.76,12.76 0 0 1 6.23,-4.929a1.749,1.749 0 0 0 1.073,-2.229z"/>
      <path stroke="null" id="svg_22" fill="#f2e89c" d="m174.72716,96.01115a1.74,1.74 0 0 0 -2.039,1.4c-0.163,0.88 -0.286,1.788 -0.363,2.7a1.749,1.749 0 0 0 1.594,1.893c0.051,0 0.1,0.007 0.151,0.007a1.751,1.751 0 0 0 1.742,-1.6c0.068,-0.8 0.175,-1.592 0.317,-2.361a1.748,1.748 0 0 0 -1.402,-2.039z"/>
     </g>
     <path stroke="null" id="svg_23" fill="#9ffb6b" d="m196.96416,140.00215c-1.819,-3.569 -4.612,-6 -7.75,-6s-5.931,2.431 -7.75,6l15.5,0z"/>
    </g>
   </g>
  </g>
  <g stroke="null" id="svg_36">
   <g stroke="null" transform="matrix(4.140330939991429,0,0,4.047757565796561,-263.5125659686395,-272.86988694550257) " id="svg_28">
    <g stroke="null" id="svg_29">
     <path stroke="null" id="svg_30" fill="#292149" d="m139.6054,171.49687a1.75,1.75 0 0 1 -1.75,-1.75a5.76,5.76 0 0 0 -0.808,-3.11a9.876,9.876 0 0 1 0,-9.407a6.38,6.38 0 0 0 0,-6.215a9.872,9.872 0 0 1 0,-9.405a5.751,5.751 0 0 0 0.808,-3.107a1.75,1.75 0 0 1 3.5,0a9.172,9.172 0 0 1 -1.192,4.7a6.376,6.376 0 0 0 0,6.213a9.872,9.872 0 0 1 0,9.405a6.387,6.387 0 0 0 0,6.219a9.17,9.17 0 0 1 1.192,4.7a1.75,1.75 0 0 1 -1.75,1.757z"/>
     <path stroke="null" id="svg_31" fill="#fbb56b" d="m162.8554,101.22087c0,16.221 -10.409,31.282 -23.25,31.282s-23.25,-15.061 -23.25,-31.282s10.409,-27.461 23.25,-27.461s23.25,11.239 23.25,27.461z"/>
     <g stroke="null" id="svg_32" fill="#f2e89c">
      <path stroke="null" id="svg_33" fill="#f2e89c" d="m136.7994,81.92687a1.748,1.748 0 0 0 -2.229,-1.074a16.224,16.224 0 0 0 -7.955,6.245a1.75,1.75 0 1 0 2.881,1.987a12.76,12.76 0 0 1 6.23,-4.929a1.749,1.749 0 0 0 1.073,-2.229z"/>
      <path stroke="null" id="svg_34" fill="#f2e89c" d="m125.1184,94.51187a1.74,1.74 0 0 0 -2.039,1.4c-0.163,0.88 -0.286,1.788 -0.363,2.7a1.749,1.749 0 0 0 1.594,1.893c0.051,0 0.1,0.007 0.151,0.007a1.751,1.751 0 0 0 1.742,-1.6c0.068,-0.8 0.175,-1.592 0.317,-2.361a1.748,1.748 0 0 0 -1.402,-2.039z"/>
     </g>
     <path stroke="null" id="svg_35" fill="#fbb56b" d="m147.3554,138.50287c-1.819,-3.569 -4.612,-6 -7.75,-6s-5.931,2.431 -7.75,6l15.5,0z"/>
    </g>
   </g>
  </g>
  <g stroke="null" id="svg_48">
   <g stroke="null" transform="matrix(4.527427391598446,0,0,3.8022013839828896,-405.90440372945613,-56.32667281352815) " id="svg_40">
    <g stroke="null" id="svg_41">
     <path stroke="null" id="svg_42" fill="#292149" d="m204.84136,125.88354a1.75,1.75 0 0 1 -1.75,-1.75a5.76,5.76 0 0 0 -0.808,-3.11a9.876,9.876 0 0 1 0,-9.407a6.38,6.38 0 0 0 0,-6.215a9.872,9.872 0 0 1 0,-9.405a5.751,5.751 0 0 0 0.808,-3.107a1.75,1.75 0 0 1 3.5,0a9.172,9.172 0 0 1 -1.192,4.7a6.376,6.376 0 0 0 0,6.213a9.872,9.872 0 0 1 0,9.405a6.387,6.387 0 0 0 0,6.219a9.17,9.17 0 0 1 1.192,4.7a1.75,1.75 0 0 1 -1.75,1.757z"/>
     <path stroke="null" id="svg_43" fill="#fb6beb" d="m228.09136,55.60754c0,16.221 -10.409,31.282 -23.25,31.282s-23.25,-15.061 -23.25,-31.282s10.409,-27.461 23.25,-27.461s23.25,11.239 23.25,27.461z"/>
     <g stroke="null" id="svg_44" fill="#f2e89c">
      <path stroke="null" id="svg_45" fill="#f2e89c" d="m202.03536,36.31354a1.748,1.748 0 0 0 -2.229,-1.074a16.224,16.224 0 0 0 -7.955,6.245a1.75,1.75 0 1 0 2.881,1.987a12.76,12.76 0 0 1 6.23,-4.929a1.749,1.749 0 0 0 1.073,-2.229z"/>
      <path stroke="null" id="svg_46" fill="#f2e89c" d="m190.35436,48.89854a1.74,1.74 0 0 0 -2.039,1.4c-0.163,0.88 -0.286,1.788 -0.363,2.7a1.749,1.749 0 0 0 1.594,1.893c0.051,0 0.1,0.007 0.151,0.007a1.751,1.751 0 0 0 1.742,-1.6c0.068,-0.8 0.175,-1.592 0.317,-2.361a1.748,1.748 0 0 0 -1.402,-2.039z"/>
     </g>
     <path stroke="null" id="svg_47" fill="#fb6beb" d="m212.59136,92.88954c-1.819,-3.569 -4.612,-6 -7.75,-6s-5.931,2.431 -7.75,6l15.5,0z"/>
    </g>
   </g>
  </g>
  <g id="svg_81">
   <g transform="matrix(0.4572875695885159,0,0,0.45118526031728834,-594.9453192560395,-811.1168224911089) " id="svg_65">
    <path id="svg_66" fill="#e19974" d="m2443.1167,2780.47672l0,194.73c0,19.48 -15.79,35.27 -35.27,35.27l-385.46,0c-19.48,0 -35.27,-15.79 -35.27,-35.27l0,-194.73l456,0z"/>
    <path id="svg_67" fill="#e19974" d="m2443.1167,2780.47672l0,194.73c0,19.48 -15.79,35.27 -35.27,35.27l-385.46,0c-19.48,0 -35.27,-15.79 -35.27,-35.27l0,-194.73l456,0z"/>
    <path id="svg_68" fill="#dc8758" d="m2413.1167,2780.47672l0,194.73c0,19.48 -15.79,35.27 -35.27,35.27l30,0c19.48,0 35.27,-15.79 35.27,-35.27l0,-194.73l-30,0z"/>
    <path id="svg_69" fill="#d77f4a" d="m2339.1167,2780.47672l40,0l0,230l-40,0l0,-230z"/>
    <path id="svg_70" fill="#d77f4a" d="m2147.1167,2780.47672l40,0l0,230l-40,0l0,-230z"/>
    <path id="svg_71" fill="#dc8758" d="m1987.1167,2820.47672l456,0l0,40l-456,0l0,-40z"/>
    <path id="svg_72" fill="#d77f4a" d="m2413.1167,2820.47672l30,0l0,40l-30,0l0,-40z"/>
    <path id="svg_73" fill="#dc8758" d="m1987.1167,2913.47672l456,0l0,40l-456,0l0,-40z"/>
    <path id="svg_74" fill="#d77f4a" d="m2413.1167,2913.47672l30,0l0,40l-30,0l0,-40z"/>
    <path id="svg_75" fill="#dc8758" d="m2457.6167,2780.47672l-485,0c-3.314,0 -6,-2.686 -6,-6l0,-38c0,-3.314 2.686,-6 6,-6l485,0c3.314,0 6,2.686 6,6l0,38c0,3.314 -2.686,6 -6,6z"/>
    <g id="svg_76" fill="#d77f4a">
     <path id="svg_77" d="m2457.6167,2730.47672l-30,0c3.314,0 6,2.686 6,6l0,38c0,3.314 -2.686,6 -6,6l30,0c3.314,0 6,-2.686 6,-6l0,-38c0,-3.314 -2.686,-6 -6,-6z"/>
     <path id="svg_78" d="m2051.1167,2780.47672l40,0l0,230l-40,0l0,-230z"/>
     <path id="svg_79" d="m2243.1167,2780.47672l40,0l0,230l-40,0l0,-230z"/>
    </g>
    <path id="svg_80" d="m2457.6167,2722.97672l-402.5,0c-4.142,0 -7.5,3.358 -7.5,7.5s3.358,7.5 7.5,7.5l401,0l0,35l-482,0l0,-35l45.923,0c4.142,0 7.5,-3.358 7.5,-7.5s-3.358,-7.5 -7.5,-7.5l-47.423,0c-7.444,0 -13.5,6.056 -13.5,13.5l0,38c0,7.444 6.056,13.5 13.5,13.5l7,0l0,187.23c0,23.583 19.187,42.77 42.77,42.77l175.884,0c4.142,0 7.5,-3.358 7.5,-7.5s-3.358,-7.5 -7.5,-7.5l-3.654,0l0,-42l41,0l0,42l-2.115,0c-4.143,0 -7.5,3.358 -7.5,7.5s3.357,7.5 7.5,7.5l174.345,0c23.583,0 42.77,-19.187 42.77,-42.77l0,-69.858c0,-4.142 -3.357,-7.5 -7.5,-7.5s-7.5,3.358 -7.5,7.5l0,0.628l-49,0l0,-38l49,0l0,1.782c0,4.142 3.357,7.5 7.5,7.5s7.5,-3.358 7.5,-7.5l0,-81.782l7,0c7.444,0 13.5,-6.056 13.5,-13.5l0,-38c0,-7.444 -6.056,-13.5 -13.5,-13.5zm-86,65l0,25l-25,0l0,-25l25,0zm-81,118l0,-38l41,0l0,38l-41,0zm0,55l41,0l0,42l-41,0l0,-42zm0,-173l41,0l0,25l-41,0l0,-25zm-55,40l0,25l-137,0l0,-25l137,0zm-137,-15l0,-25l41,0l0,25l-41,0zm0,148l41,0l0,42l-41,0l0,-42zm0,-93l41,0l0,38l-41,0l0,-38zm56,0l25,0l0,38l-25,0l0,-38zm40,0l41,0l0,38l-41,0l0,-38zm41,-55l-41,0l0,-25l41,0l0,25zm-56,-25l0,25l-25,0l0,-25l25,0zm-136,65l-49,0l0,-25l49,0l0,25zm-49,15l49,0l0,38l-49,0l0,-38zm0,53l49,0l0,25l-49,0l0,-25zm49,-133l0,25l-49,0l0,-25l49,0zm-49,187.23l0,-14.23l49,0l0,42l-21.23,0c-15.312,0 -27.77,-12.458 -27.77,-27.77zm64,27.77l0,-215l25,0l0,215l-25,0zm121,0l-25,0l0,-42l25,0l0,42zm-81,-57l0,-25l137,0l0,25l-137,0zm152,57l0,-215l25,0l0,215l-25,0zm96,0l0,-42l25,0l0,42l-25,0zm61.23,0l-21.23,0l0,-42l49,0l0,14.23c0,15.312 -12.457,27.77 -27.77,27.77zm27.77,-57l-145,0l0,-25l145,0l0,25zm-64,-40l-25,0l0,-38l25,0l0,38zm-81,-53l0,-25l145,0l0,25l-145,0zm145,-40l-49,0l0,-25l49,0l0,25z"/>
   </g>
  </g>
  <g stroke="null" id="svg_125">
   <g stroke="null" transform="matrix(0.3767725866055116,0,0,0.37329100450733677,-428.4031442414853,-419.3656230155684) " id="svg_85">
    <path stroke="null" id="svg_86" fill="#523417" d="m2401.2558,1830.94101c-40.357,-38.168 -93.919,-59.188 -150.82,-59.188s-110.463,21.02 -150.82,59.188c-40.734,38.524 -63.167,89.851 -63.167,144.525l0,48.267c0,66.125 53.605,119.73 119.73,119.73l188.514,0c66.125,0 119.73,-53.605 119.73,-119.73l0,-48.267c0,-54.674 -22.433,-106.001 -63.167,-144.525z"/>
    <path stroke="null" id="svg_87" fill="#cb198e" d="m2086.4488,2023.73301l0,-48.267c0,-54.674 22.433,-106.001 63.167,-144.525c34.387,-32.521 78.363,-52.581 125.82,-57.808c-8.24,-0.908 -16.582,-1.379 -25,-1.379c-56.9,0 -110.463,21.02 -150.82,59.188c-40.734,38.524 -63.167,89.851 -63.167,144.525l0,48.267c0,66.125 53.605,119.73 119.73,119.73l50,0c-66.125,-0.001 -119.73,-53.606 -119.73,-119.731z"/>
    <polygon stroke="null" id="svg_88" fill="#ff99b1" points="2354.3829650878906,2109.692123413086 2146.4889221191406,2109.692123413086 2113.3097229003906,2165.114974975586 2146.4889221191406,2241.223129272461 2354.3829650878906,2241.223129272461 2387.5616760253906,2165.114974975586 "/>
    <circle stroke="null" id="svg_89" fill="#e3a96f" r="41.759" cy="1975.46301" cx="2439.8158"/>
    <polygon stroke="null" id="svg_90" fill="#efedee" points="2113.3097229003906,2165.114974975586 2080.1310119628906,2185.454086303711 2080.1310119628906,2213.339096069336 2113.3097229003906,2227.280990600586 2146.4889221191406,2213.339096069336 2146.4889221191406,2185.454086303711 "/>
    <polygon stroke="null" id="svg_91" fill="#d4d2d3" points="2110.1310119628906,2213.339096069336 2110.1310119628906,2185.454086303711 2128.3097229003906,2174.310043334961 2113.3097229003906,2165.114974975586 2080.1310119628906,2185.454086303711 2080.1310119628906,2213.339096069336 2113.3097229003906,2227.280990600586 2128.3097229003906,2220.978012084961 "/>
    <polygon stroke="null" id="svg_92" fill="#efedee" points="2387.5616760253906,2165.114974975586 2420.7408752441406,2185.454086303711 2420.7408752441406,2213.339096069336 2387.5616760253906,2227.280990600586 2354.3829650878906,2213.339096069336 2354.3829650878906,2185.454086303711 "/>
    <path stroke="null" id="svg_93" fill="#dc5a64" d="m2080.1308,2185.45401l66.359,0c9.456,-8.859 15.373,-21.45 15.373,-35.43c0,-26.814 -21.737,-48.552 -48.552,-48.552c-26.814,0 -48.552,21.737 -48.552,48.552c-0.001,13.98 5.916,26.571 15.372,35.43z"/>
    <path stroke="null" id="svg_94" fill="#bf4e57" d="m2094.7578,2150.02401c0,-21.578 14.081,-39.858 33.552,-46.179c-4.725,-1.534 -9.764,-2.373 -15,-2.373c-26.814,0 -48.552,21.737 -48.552,48.552c0,13.98 5.917,26.571 15.373,35.43l30,0c-9.456,-8.859 -15.373,-21.45 -15.373,-35.43z"/>
    <path stroke="null" id="svg_95" fill="#dc5a64" d="m2420.7408,2185.45401l-66.359,0c-9.456,-8.859 -15.373,-21.45 -15.373,-35.43c0,-26.814 21.737,-48.552 48.552,-48.552c26.814,0 48.552,21.737 48.552,48.552c0.001,13.98 -5.916,26.571 -15.372,35.43z"/>
    <path stroke="null" id="svg_96" fill="#e3a96f" d="m2250.4358,1861.01001c-84.627,77.738 -184.252,73.02 -184.279,73.019c-3.332,13.301 -5.104,27.173 -5.104,41.438c0,98.919 84.79,179.109 189.383,179.109s189.383,-80.19 189.383,-179.109c0,-14.265 -1.773,-28.136 -5.104,-41.438c-0.026,0.001 -99.652,4.719 -184.279,-73.019z"/>
    <path stroke="null" id="svg_97" fill="#e3a96f" d="m2112.0058,2097.67901c-16.009,-20.359 -25.557,-46.037 -25.557,-73.945l0,-48.267c0,-14.509 1.595,-28.777 4.678,-42.638c-15.52,1.644 -24.961,1.201 -24.969,1.2c-0.006,0.025 -0.011,0.051 -0.018,0.076c-1.478,-0.255 -3.152,-0.397 -5.087,-0.397c-23.063,0 -41.759,18.696 -41.759,41.759c0,23.063 18.696,41.759 41.759,41.759c1.936,0 3.611,-0.143 5.09,-0.398c7.698,30.78 23.785,58.492 45.863,80.851z"/>
    <g stroke="null" id="svg_98">
     <path stroke="null" id="svg_99" fill="#f98084" d="m2167.7468,2021.30401l-25.24,0c-4.142,0 -7.5,-3.358 -7.5,-7.5s3.358,-7.5 7.5,-7.5l25.24,0c4.142,0 7.5,3.358 7.5,7.5s-3.358,7.5 -7.5,7.5z"/>
     <path stroke="null" id="svg_100" fill="#f98084" d="m2358.3648,2021.30401l-25.24,0c-4.142,0 -7.5,-3.358 -7.5,-7.5s3.358,-7.5 7.5,-7.5l25.24,0c4.142,0 7.5,3.358 7.5,7.5s-3.358,7.5 -7.5,7.5z"/>
    </g>
    <rect stroke="null" id="svg_101" fill="#e3a96f" height="27.885" width="66.36" y="2213.34301" x="2080.1258"/>
    <rect stroke="null" id="svg_102" fill="#e3a96f" height="27.884" width="30" y="2213.34301" x="2080.1258"/>
    <rect stroke="null" id="svg_103" fill="#e3a96f" height="27.885" width="66.36" y="2213.34301" x="2354.3858"/>
    <ellipse stroke="null" id="svg_104" fill="#dc5a64" ry="20.882" rx="13.778" cy="2196.20301" cx="2250.4358"/>
    <path stroke="null" id="svg_105" fill="#ffce1c" d="m2291.4428,1760.92701l-14.107,-16.704l-26.9,19.657l-26.9,-19.657l-14.106,16.704l-28.212,-8.831l17.681,60.062c2.743,9.319 11.297,15.718 21.012,15.718l61.053,0c9.715,0 18.268,-6.399 21.012,-15.718l17.681,-60.062l-28.214,8.831z"/>
    <path stroke="null" id="svg_106" fill="#000000" d="m2155.1268,1994.06501c4.142,0 7.5,-3.358 7.5,-7.5l0,-18.532c0,-4.142 -3.358,-7.5 -7.5,-7.5c-4.143,0 -7.5,3.358 -7.5,7.5l0,18.532c0,4.142 3.357,7.5 7.5,7.5z"/>
    <path stroke="null" id="svg_107" fill="#000000" d="m2345.7448,1994.06501c4.142,0 7.5,-3.358 7.5,-7.5l0,-18.532c0,-4.142 -3.358,-7.5 -7.5,-7.5s-7.5,3.358 -7.5,7.5l0,18.532c0,4.142 3.358,7.5 7.5,7.5z"/>
    <path stroke="null" id="svg_108" fill="#000000" d="m2250.4358,2020.25701c8.808,0 17.08,-3.684 22.694,-10.106c2.726,-3.119 2.408,-7.857 -0.711,-10.583s-7.857,-2.407 -10.583,0.711c-2.765,3.164 -6.921,4.978 -11.4,4.978c-4.479,0 -8.635,-1.814 -11.401,-4.979c-2.726,-3.119 -7.464,-3.437 -10.583,-0.71s-3.437,7.464 -0.71,10.583c5.615,6.423 13.886,10.106 22.694,10.106z"/>
    <path stroke="null" id="svg_109" fill="#000000" d="m2028.9478,2012.78001l0,10.954c0,35.135 14.406,68.389 39.764,92.39c-7.179,9.421 -11.454,21.169 -11.454,33.901c0,14.309 5.571,28.164 15.373,38.527l0,52.671c0,4.142 3.358,7.5 7.5,7.5l340.611,0c4.142,0 7.5,-3.358 7.5,-7.5l0,-52.671c9.802,-10.364 15.373,-24.218 15.373,-38.527c0,-12.732 -4.274,-24.48 -11.453,-33.901c25.357,-24 39.763,-57.259 39.763,-92.39l0,-10.954c10.492,-9.041 17.155,-22.409 17.155,-37.313c0,-16.74 -8.4,-31.547 -21.199,-40.452c-8.403,-41.577 -29.606,-79.388 -61.469,-109.522c-24.208,-22.895 -53.71,-40.218 -85.703,-50.409l6.143,-20.869c0.782,-2.655 0.037,-5.526 -1.937,-7.466c-1.974,-1.941 -4.857,-2.636 -7.498,-1.809l-23.457,7.342l-10.893,-12.898c-2.541,-3.008 -6.976,-3.54 -10.155,-1.216l-22.476,16.423l-22.475,-16.423c-3.18,-2.324 -7.614,-1.792 -10.155,1.216l-10.891,12.897l-23.457,-7.342c-2.643,-0.827 -5.524,-0.131 -7.498,1.809s-2.719,4.811 -1.937,7.466l6.143,20.869c-31.993,10.191 -61.495,27.515 -85.702,50.409c-31.864,30.135 -53.067,67.946 -61.47,109.522c-12.799,8.905 -21.199,23.712 -21.199,40.452c-0.001,14.905 6.661,28.273 17.153,37.314zm15,10.953l0,-2.056c1.566,0.581 4.837,1.501 4.865,1.508c3.839,0.943 7.756,1.489 11.711,1.529c7.634,26.418 21.252,50.511 39.385,70.889c-7.591,1.869 -14.575,5.287 -20.602,9.901c-22.546,-21.193 -35.359,-50.648 -35.359,-81.771zm154.534,131.724c16.954,4.363 34.444,6.619 51.954,6.619c18.971,0 37.955,-2.597 56.213,-7.762c0.129,-0.037 0.26,-0.069 0.389,-0.106c-6.76,14.684 -20.169,26.275 -36.784,31.482c-3.071,-10.564 -10.684,-17.874 -19.818,-17.874c-9.134,0 -16.746,7.309 -19.818,17.874c-16.615,-5.208 -30.024,-16.799 -36.784,-31.482c0.129,0.037 3.224,0.883 4.648,1.249zm51.954,27.359c2.213,0 6.278,5.081 6.278,13.381c0,8.301 -4.065,13.382 -6.278,13.382c-2.213,0 -6.278,-5.081 -6.278,-13.382c0,-8.3 4.065,-13.381 6.278,-13.381zm-137.549,-73.841c11.852,10.971 25.095,20.475 39.435,28.301c0.523,1.594 0.954,3.217 1.276,4.864c2.186,11.182 -0.553,23.167 -7.312,32.331c-0.9,1.22 -1.885,2.375 -2.918,3.484l-60.133,0c-7.101,-7.611 -10.978,-17.424 -10.978,-27.93c0.001,-22.496 18.187,-40.823 40.63,-41.05zm-25.256,83.979l51.358,0l0,12.885l-51.358,0l0,-12.885zm-0.001,27.885l51.359,0l0,12.884l-51.359,0l0,-12.884zm66.359,-32.273c0.362,-0.383 0.706,-0.78 1.057,-1.172c6.449,-7.212 10.981,-16.157 13.032,-25.653c1.14,-5.278 1.532,-10.844 1.101,-16.271c2.233,0.959 4.492,1.862 6.762,2.74c6.144,25.274 26.854,45.654 53.509,52.76c1.656,13.564 10.277,23.609 20.986,23.609c10.709,0 19.33,-10.045 20.986,-23.609c26.656,-7.106 47.366,-27.483 53.51,-52.759c2.27,-0.878 4.528,-1.782 6.762,-2.741c-0.033,0.414 -0.051,0.83 -0.075,1.245c-0.693,11.903 2.492,24.05 9.079,34.002c1.839,2.778 3.893,5.429 6.185,7.85l0,45.156l-192.894,0l0,-45.157zm259.252,4.388l0,12.885l-51.358,0l0,-12.885l51.358,0zm-51.358,40.769l0,-12.884l51.359,0l0,12.884l-51.359,0zm55.753,-55.769l-60.132,0c-4.681,-5.025 -8.096,-11.212 -9.76,-17.881c-1.867,-7.482 -1.6,-15.47 0.806,-22.798c14.341,-7.827 27.583,-17.331 39.435,-28.301c22.442,0.228 40.628,18.555 40.628,41.05c0.001,10.506 -3.876,20.319 -10.977,27.93zm39.287,-156.276l0,2.056c0,31.12 -12.813,60.579 -35.36,81.772c-6.027,-4.615 -13.011,-8.032 -20.602,-9.902c18.133,-20.378 31.751,-44.471 39.385,-70.889c1.751,-0.018 3.494,-0.131 5.234,-0.332c3.866,-0.44 7.695,-1.352 11.343,-2.705zm2.881,-18.402c-4.632,3.339 -10.085,5.472 -15.752,6.166c0.32,-1.642 0.607,-3.291 0.88,-4.941c1.588,-9.592 2.387,-19.311 2.387,-29.034c0,-9.431 -0.762,-18.859 -2.251,-28.171c-0.304,-1.904 -0.643,-3.892 -1.018,-5.816c0.806,0.1 1.606,0.224 2.403,0.382c3.656,0.724 7.187,2.048 10.417,3.906c10.274,5.922 17.208,17.014 17.208,29.699c0,11.437 -5.635,21.583 -14.274,27.809zm-252.615,-235.191c2.882,0.902 6.023,-0.012 7.971,-2.318l9.596,-11.363l21.256,15.532c2.636,1.926 6.214,1.926 8.85,0l21.256,-15.532l9.596,11.363c1.948,2.307 5.089,3.221 7.971,2.318l14.812,-4.636l-13.715,46.592c-1.792,6.086 -7.473,10.336 -13.817,10.336c0,0 -61.025,0 -61.053,0c-6.284,0 -12.044,-4.314 -13.817,-10.336l-13.715,-46.592l14.809,4.636zm-157.047,159.345c9.046,-34.374 27.754,-65.625 54.627,-91.04c22.495,-21.275 49.898,-37.403 79.629,-46.925l7.303,24.811c3.594,12.195 15.502,21.1 28.207,21.1c0,0 61.023,0 61.053,0c12.718,0 24.611,-8.882 28.207,-21.101l7.303,-24.811c29.731,9.521 57.135,25.649 79.63,46.925c26.873,25.415 45.581,56.666 54.627,91.04c-0.103,-0.023 -0.208,-0.039 -0.311,-0.062c-13.487,-3.004 -27.424,-0.366 -41.049,-1.89c-10.362,-1.159 -20.611,-3.154 -30.764,-5.498c-24.953,-5.763 -49.106,-15.004 -71.515,-27.405c-18.476,-10.212 -35.959,-22.744 -51.582,-37.088c-2.869,-2.635 -7.278,-2.635 -10.147,0c-10.748,9.873 -22.179,18.788 -34.247,26.715c-20.112,13.213 -41.99,23.684 -65.406,31.282c-3.86,1.253 -6.073,5.589 -4.818,9.449c1.252,3.852 5.602,6.066 9.448,4.819c4.355,-1.413 14.895,-5.294 15.887,-5.68c29.738,-11.567 56.904,-27.752 81.05,-48.289c1.055,-0.897 2.117,-1.784 3.16,-2.698c73.133,64.049 155.155,70.119 178.314,70.484c0.249,1.171 0.488,2.344 0.711,3.521c3.726,19.674 3.77,39.958 0.186,59.656c-0.568,3.124 -1.261,6.431 -2.013,9.499c-14.069,57.254 -58.6,103.608 -116.538,123.005c-19.512,6.532 -40.089,9.827 -60.661,9.827c-20.546,0 -41.168,-3.31 -60.661,-9.827c-57.936,-19.397 -102.467,-65.752 -116.536,-123.006c-5.385,-21.914 -6.109,-44.952 -2.185,-67.17c0.326,-1.843 0.683,-3.68 1.072,-5.511c4.388,-0.074 19.252,-1.221 19.322,-1.228c8.18,-0.852 16.223,-2.135 24.302,-3.638c3.452,-0.671 6.035,-3.762 6.07,-7.281c0.047,-4.639 -4.313,-8.342 -8.933,-7.444c-13.565,2.633 -27.346,4.389 -41.175,4.592c-3.562,0.052 -7.098,-0.356 -10.656,-0.356c-3.554,0 -7.13,0.389 -10.6,1.161c-0.103,0.024 -0.208,0.039 -0.311,0.062zm-6.14,18.337c3.938,-2.27 8.311,-3.728 12.82,-4.288c-2.178,11.177 -3.27,22.6 -3.27,33.987c0,11.252 1.308,22.272 3.154,33.35c0.04,0.208 0.073,0.417 0.114,0.625c-5.68,-0.702 -11.124,-2.826 -15.769,-6.177c-8.629,-6.227 -14.257,-16.367 -14.257,-27.798c0,-12.685 6.935,-23.777 17.208,-29.699z"/>
    <g stroke="null" id="svg_110"/>
    <g stroke="null" id="svg_111"/>
    <g stroke="null" id="svg_112"/>
    <g stroke="null" id="svg_113"/>
    <g stroke="null" id="svg_114"/>
    <g stroke="null" id="svg_115"/>
    <g stroke="null" id="svg_116"/>
    <g stroke="null" id="svg_117"/>
    <g stroke="null" id="svg_118"/>
    <g stroke="null" id="svg_119"/>
    <g stroke="null" id="svg_120"/>
    <g stroke="null" id="svg_121"/>
    <g stroke="null" id="svg_122"/>
    <g stroke="null" id="svg_123"/>
    <g stroke="null" id="svg_124"/>
   </g>
  </g>
 </g>
</svg>